<svg id="Groupe_77" data-name="Groupe 77" xmlns="http://www.w3.org/2000/svg" xmlns:xlink="http://www.w3.org/1999/xlink" width="123.679" height="59.623" viewBox="0 0 123.679 59.623">
  <defs>
    <clipPath id="clip-path">
      <rect id="Rectangle_65" data-name="Rectangle 65" width="72.27" height="54.9" fill="none"/>
    </clipPath>
    <clipPath id="clip-path-2">
      <rect id="Rectangle_66" data-name="Rectangle 66" width="74.553" height="57.207" fill="none"/>
    </clipPath>
    <clipPath id="clip-path-3">
      <rect id="Rectangle_67" data-name="Rectangle 67" width="123.679" height="59.623" fill="none"/>
    </clipPath>
  </defs>
  <g id="Groupe_72" data-name="Groupe 72" transform="translate(15.748 4.722)">
    <g id="Groupe_71" data-name="Groupe 71" clip-path="url(#clip-path)">
      <path id="Tracé_70" data-name="Tracé 70" d="M65.066,29.07l-4.45-9.038a1.3,1.3,0,0,1-.062-.146.651.651,0,0,1-.032-.123.3.3,0,0,1,0-.1.172.172,0,0,1,.031-.075L65,28.668a.17.17,0,0,0-.023.069.3.3,0,0,0,0,.09.6.6,0,0,0,.031.111,1.238,1.238,0,0,0,.057.132" transform="translate(-59.602 -18.917)" fill="#fff"/>
      <path id="Tracé_71" data-name="Tracé 71" d="M130.59,67.043,121.3,68.77l-.055-.019-.067-.022-.081-.023L121,68.682a14.32,14.32,0,0,1-4.357-1.935,39.865,39.865,0,0,1-4.767-3.6c-1.619-1.393-3.279-2.962-4.972-4.629-1.654-1.631-3.336-3.35-5.035-5.088q-1.46-1.5-2.908-2.968-1.431-1.449-2.862-2.854-1.414-1.384-2.841-2.709-1.411-1.305-2.847-2.537c-.189-.161-.729-.536-1.535-1.066s-1.858-1.2-3.088-1.969-2.6-1.6-4.059-2.482c-1.444-.865-2.966-1.76-4.492-2.633-2.234-1.278-4.043-2.262-5.512-3.021-1.453-.751-2.585-1.288-3.468-1.672a18.517,18.517,0,0,0-1.978-.753,4.167,4.167,0,0,0-.929-.195c-.039,0-.072,0-.1,0a.627.627,0,0,0-.072.006.447.447,0,0,0-.05.009.154.154,0,0,0-.031.01l-4.449-9.082a.232.232,0,0,1,.036-.01.5.5,0,0,1,.06-.01.84.84,0,0,1,.088-.006h.12a5.279,5.279,0,0,1,1.1.219,22.55,22.55,0,0,1,2.341.84c1.045.428,2.383,1.027,4.1,1.867,1.743.851,3.893,1.956,6.556,3.4,1.825.986,3.651,2,5.387,2.985,1.762,1,3.433,1.964,4.906,2.833,1.494.881,2.782,1.658,3.759,2.264s1.647,1.045,1.878,1.231q1.767,1.424,3.507,2.946,1.771,1.543,3.533,3.171,1.793,1.652,3.594,3.373,1.834,1.746,3.69,3.542c2.173,2.09,4.335,4.172,6.474,6.154,2.2,2.041,4.368,3.972,6.483,5.694a54.126,54.126,0,0,0,6.258,4.487,19.512,19.512,0,0,0,5.682,2.44l.123.029c.038.01.072.02.1.029l.088.027.072.024" transform="translate(-59.695 -18.847)" fill="#fff"/>
      <path id="Tracé_72" data-name="Tracé 72" d="M66.98,32.377q-.326-.37-.6-.69t-.478-.588q-.209-.268-.355-.484a3.343,3.343,0,0,1-.227-.378L60.873,21.2a3.359,3.359,0,0,0,.254.419q.165.239.4.536t.548.652q.31.356.687.768c.1.2.229.477.327.683l.336.7.34.711c.1.213.236.493.336.7l.328.683.313.655.294.614.27.564c.063.131.146.305.208.436s.152.317.216.453.154.324.221.461.154.324.22.46l.216.451.208.435.2.411.182.381" transform="translate(-59.859 -20.083)" fill="#121211"/>
      <path id="Tracé_73" data-name="Tracé 73" d="M71.965,38.628l-1.8-3.762-1.24-2.592c-.05-.106-.118-.247-.169-.353l-.17-.355-.34-.708-.332-.695c-.048-.1-.161-.225-.161-.337q.254.278.539.581l.6.634q.313.33.654.683t.71.738l.372.82.381.84c.114.253.268.589.382.842l.376.827.363.8.345.759.321.708.294.647.127.279.132.292.135.3.136.3.134.3.13.287.123.273c.036.076.081.177.116.254l-.612-.658-.563-.611c-.18-.2-.352-.386-.515-.567s-.318-.355-.465-.522" transform="translate(-64.843 -26.335)" fill="#121211"/>
      <path id="Tracé_74" data-name="Tracé 74" d="M80.694,47.929,76.825,39.4l.462.477.482.5.5.517.521.536.13.135.132.136.134.138.136.139,3.506,8.234-.115-.124-.114-.121-.112-.121c-.036-.04-.074-.08-.111-.12l-.446-.476-.429-.458-.412-.442-.4-.424" transform="translate(-71.419 -33.277)" fill="#121211"/>
      <path id="Tracé_75" data-name="Tracé 75" d="M89.406,56.992,85.9,48.759c.142.144.285.292.432.444l.446.46.462.476.479.495,1.246,1.29L90.2,53.208l1.229,1.28q.61.636,1.22,1.275c.075.224.174.523.249.747l.253.762c.076.229.177.532.252.761l.248.745c.072.216.167.5.238.716s.158.475.225.678l.21.63c.057.172.134.4.191.575.021.064.05.15.072.213s.052.157.074.223l.076.229c.023.069.053.161.077.229l.075.227c.022.066.051.154.072.219s.049.147.069.209l.065.2q-.506-.55-1.02-1.106L93.045,60.9,92,59.777,90.95,58.643l-.408-.435-.392-.419-.379-.405-.367-.392" transform="translate(-77.994 -40.055)" fill="#121211"/>
      <path id="Tracé_76" data-name="Tracé 76" d="M112.863,81.552q-1.223-3.678-2.447-7.357l1.744,1.827,1.726,1.811,1.7,1.793,1.684,1.773q1.8,1.9,3.509,3.693,1.741,1.83,3.392,3.551,1.679,1.749,3.265,3.381,1.613,1.654,3.133,3.18l-1.038,3.009-.19.551-.047.135c-.007.02-.016.046-.022.066-.014.038-.03.088-.043.126l-.021.06c-.006.018-.024.04-.02.057q-1.2-1.245-2.474-2.605-1.261-1.343-2.6-2.795-1.324-1.432-2.73-2.965-1.387-1.51-2.854-3.116l-1.38-1.508-1.4-1.532-1.429-1.557-1.452-1.578" transform="translate(-95.76 -58.487)" fill="#121211"/>
      <path id="Tracé_77" data-name="Tracé 77" d="M178.6,154.493l1.381-4c2.088,2.092,4.046,3.992,5.9,5.695,1.894,1.742,3.666,3.27,5.345,4.586a42.9,42.9,0,0,0,4.839,3.339,22.289,22.289,0,0,0,4.427,2.02l-6.064.845a16.615,16.615,0,0,1-3.395-1.582,32.229,32.229,0,0,1-3.708-2.633c-1.292-1.043-2.657-2.262-4.122-3.658-1.438-1.371-2.965-2.906-4.6-4.608" transform="translate(-145.169 -113.773)" fill="#121211"/>
      <path id="Tracé_78" data-name="Tracé 78" d="M262.027,196.868l-7.528.727a9.7,9.7,0,0,0,1.41-.486c.678-.27,1.511-.629,2.331-1.016s1.626-.8,2.266-1.183a3.968,3.968,0,0,0,1.265-1.007l9.293-1.727a4.607,4.607,0,0,1-1.534,1.272c-.789.487-1.791,1.012-2.809,1.5s-2.065.951-2.916,1.295a11.9,11.9,0,0,1-1.778.621" transform="translate(-200.169 -143.981)" fill="#fff"/>
      <path id="Tracé_79" data-name="Tracé 79" d="M259.3,209.332l-7.337.7.174-.018.174-.021.173-.023.175-.027,7.527-.727-.222.034-.222.03-.222.027-.222.023" transform="translate(-198.333 -156.331)" fill="#fff"/>
      <path id="Tracé_80" data-name="Tracé 80" d="M236.072,208.131l6.064-.845q.472.15.935.267t.923.2q.459.086.913.14t.9.078c.166.009.331.015.5.017s.33,0,.495,0,.329-.01.493-.02.328-.022.492-.039l-7.337.7q-.192.019-.384.03t-.384.015c-.128,0-.257,0-.385,0s-.257-.006-.386-.013q-.349-.018-.7-.061t-.706-.108q-.354-.067-.712-.159t-.719-.208" transform="translate(-186.815 -154.931)" fill="#121211"/>
      <path id="Tracé_81" data-name="Tracé 81" d="M60.857,19.493a5.24,5.24,0,0,1,1.1.219,22.551,22.551,0,0,1,2.341.84c1.045.428,2.383,1.027,4.1,1.866,1.743.851,3.893,1.956,6.556,3.4,1.825.986,3.651,2,5.387,2.985,1.762,1,3.433,1.965,4.906,2.834,1.494.881,2.783,1.658,3.759,2.264s1.647,1.045,1.878,1.231q1.767,1.424,3.507,2.945,1.772,1.544,3.533,3.172,1.793,1.654,3.594,3.373,1.834,1.747,3.69,3.541c2.173,2.091,4.335,4.172,6.474,6.155,2.2,2.04,4.368,3.971,6.483,5.693a54.1,54.1,0,0,0,6.258,4.487,19.486,19.486,0,0,0,5.683,2.439l.121.03.1.029.087.028.072.024a4.623,4.623,0,0,1-1.535,1.272c-.789.487-1.791,1.012-2.809,1.5s-2.065.951-2.916,1.295a12.05,12.05,0,0,1-1.778.621q-.356.058-.713.1c-.238.026-.476.045-.714.059s-.477.02-.716.02-.479-.006-.719-.018a17.21,17.21,0,0,1-7.341-2.281,49.161,49.161,0,0,1-8.478-6.146c-3.021-2.618-6.326-5.818-10.04-9.592-3.531-3.587-7.375-7.635-11.625-12.112L78.25,38.744q-1.435-1.51-2.922-3.067-1.463-1.534-2.976-3.111-1.489-1.551-3.028-3.142l-.629-.649-.6-.62-.573-.59L66.976,27c-1.079-1.107-2.046-2.1-2.884-2.979s-1.526-1.612-2.083-2.242A14.59,14.59,0,0,1,60.8,20.273c-.248-.377-.338-.633-.245-.755l.036-.011a.587.587,0,0,1,.06-.01c.024,0,.054-.005.088-.006s.074,0,.12,0" transform="translate(-59.601 -18.846)" fill="#008cd1"/>
      <path id="Tracé_82" data-name="Tracé 82" d="M127.6,63.925a3.847,3.847,0,0,1,.814.266,2.223,2.223,0,0,1,.539.345,1.576,1.576,0,0,1,.319.381,1.4,1.4,0,0,1,.153.372c.159.64-.35,1.338-1.213,2.029a18.726,18.726,0,0,1-3.37,2c-1.277.619-2.586,1.16-3.586,1.546s-1.7.624-1.723.63q-.4.063-.8.108t-.8.066q-.4.023-.8.024t-.8-.02a18.2,18.2,0,0,1-7.73-2.368,49.51,49.51,0,0,1-8.767-6.344c-3.1-2.7-6.471-5.987-10.244-9.861-3.584-3.68-7.474-7.824-11.766-12.4q-1.4-1.494-2.859-3.042-1.432-1.524-2.916-3.1-1.46-1.547-2.97-3.139-1.485-1.565-3.019-3.17l-.627-.656-.6-.625-.572-.6-.547-.569c-1.517-1.582-2.728-2.841-3.674-3.859-.929-1-1.61-1.771-2.075-2.377a3.787,3.787,0,0,1-.776-1.385.71.71,0,0,1,.324-.778,1.159,1.159,0,0,1,.18-.1,1.332,1.332,0,0,1,.2-.077,1.741,1.741,0,0,1,.23-.05,2.434,2.434,0,0,1,.257-.023h.164l.058,0a21.977,21.977,0,0,1,6.143,2.12c2.774,1.262,6.11,2.977,9.438,4.779,3.429,1.856,6.858,3.809,9.6,5.423,2.812,1.657,4.864,2.936,5.382,3.349,1.187.946,2.374,1.937,3.558,2.961,1.2,1.04,2.4,2.113,3.6,3.2,1.215,1.11,2.425,2.238,3.623,3.367,1.218,1.149,2.425,2.3,3.61,3.429,2.132,2.032,4.253,4.052,6.346,5.978,2.15,1.978,4.263,3.848,6.313,5.513A53.564,53.564,0,0,0,122.25,61.6a18.222,18.222,0,0,0,5.353,2.32m-8.558,6.117a11.874,11.874,0,0,0,1.778-.621c.852-.345,1.892-.8,2.916-1.295s2.02-1.015,2.809-1.5a4.607,4.607,0,0,0,1.534-1.272l-.072-.024-.088-.028-.1-.029-.121-.029a19.5,19.5,0,0,1-5.683-2.44,54.179,54.179,0,0,1-6.258-4.487c-2.116-1.723-4.283-3.654-6.483-5.694-2.14-1.984-4.3-4.064-6.474-6.155q-1.858-1.791-3.69-3.541-1.8-1.717-3.593-3.372-1.764-1.625-3.533-3.172-1.743-1.52-3.508-2.946c-.23-.186-.892-.619-1.878-1.231s-2.266-1.383-3.759-2.264c-1.475-.868-3.142-1.834-4.906-2.833-1.736-.984-3.561-2-5.387-2.985-2.663-1.438-4.813-2.544-6.557-3.4-1.719-.839-3.057-1.438-4.1-1.867a22.663,22.663,0,0,0-2.341-.84,5.281,5.281,0,0,0-1.1-.219c-.045,0-.085,0-.12,0s-.064,0-.088.006l-.061.01-.036.011c-.093.123,0,.379.245.755A14.62,14.62,0,0,0,59.6,20.087c.557.629,1.259,1.379,2.083,2.242s1.805,1.87,2.882,2.978l.546.563.571.59.6.62.629.65q1.539,1.591,3.028,3.142,1.514,1.577,2.977,3.111Q74.4,35.54,75.834,37.05q1.458,1.534,2.863,3.014c4.251,4.477,8.094,8.524,11.625,12.113,3.714,3.775,7.016,6.975,10.04,9.594a49.166,49.166,0,0,0,8.479,6.146,17.209,17.209,0,0,0,7.34,2.281q.361.019.719.018c.239,0,.477-.007.716-.02s.476-.033.713-.059.476-.058.713-.1" transform="translate(-57.185 -17.154)" fill="#fff"/>
      <path id="Tracé_83" data-name="Tracé 83" d="M118.362,75.646l-7.322.366c-.1.005-.194.009-.291.011s-.194,0-.291,0-.194,0-.291,0-.194-.006-.291-.011a13.691,13.691,0,0,1-5.938-1.844,37.225,37.225,0,0,1-6.717-5c-2.4-2.152-5.019-4.8-7.984-7.948-2.845-3.021-5.966-6.465-9.455-10.314l-2.348-2.587q-1.185-1.3-2.417-2.656-1.216-1.336-2.484-2.717-1.249-1.363-2.548-2.769l-.532-.575-.509-.55-.487-.525-.465-.5c-.844-.91-1.577-1.7-2.211-2.392s-1.158-1.271-1.6-1.779-.8-.93-1.074-1.295a6.377,6.377,0,0,1-.6-.917l-4.6-9a6.6,6.6,0,0,0,.683,1.017c.316.4.724.88,1.231,1.441s1.127,1.223,1.855,1.991,1.593,1.669,2.58,2.7l.546.569.572.6.6.625.627.656q1.535,1.605,3.019,3.17,1.51,1.591,2.97,3.139,1.484,1.573,2.916,3.1,1.456,1.546,2.858,3.042c4.293,4.576,8.182,8.72,11.766,12.4,3.774,3.875,7.143,7.164,10.244,9.861a49.488,49.488,0,0,0,8.767,6.344,18.2,18.2,0,0,0,7.73,2.368q.188.009.375.015t.375,0q.186,0,.374,0t.374-.014" transform="translate(-57.705 -21.125)" fill="#fff"/>
    </g>
  </g>
  <g id="Groupe_74" data-name="Groupe 74">
    <g id="Groupe_73" data-name="Groupe 73" clip-path="url(#clip-path-2)">
      <path id="Tracé_84" data-name="Tracé 84" d="M72.438,11.978A61.157,61.157,0,0,1,63.8,22.322c-4.174,4.215-9.389,8.894-15.01,13.516C42.727,40.817,36.239,45.692,30.3,49.657c-6.294,4.2-11.769,7.252-15.119,8.159L5.39,57.669c4.43-1.176,11.721-5.094,20.022-10.419,7.706-4.943,15.995-10.914,23.595-16.9a239.648,239.648,0,0,0,18.183-15.7c4.551-4.421,8.025-8.38,9.934-11.511Z" transform="translate(-3.906 -2.274)" fill="#121211"/>
      <path id="Tracé_85" data-name="Tracé 85" d="M77.125,3.139c-1.909,3.133-5.382,7.09-9.934,11.511a239.306,239.306,0,0,1-18.183,15.7c-7.6,5.987-15.888,11.959-23.595,16.9-8.3,5.325-15.592,9.243-20.022,10.419Z" transform="translate(-3.907 -2.275)" fill="#008dc8"/>
      <path id="Tracé_86" data-name="Tracé 86" d="M74.553,1.21l-4.875,8.88c-1.576,2.96-4.616,6.709-8.62,10.859A195.791,195.791,0,0,1,45.326,35.322a230.413,230.413,0,0,1-19.6,14.613c-6.648,4.367-12.316,7.369-15.5,7.874L0,58.083c4.194-.658,11.769-4.544,20.572-10.114a296.811,296.811,0,0,0,25.085-17.96A229.539,229.539,0,0,0,64.7,13.284c4.665-4.669,8.131-8.827,9.855-12.074" transform="translate(0 -0.877)" fill="#f0f0f0"/>
      <path id="Tracé_87" data-name="Tracé 87" d="M73.716,0l.837.334C72.827,3.582,69.363,7.74,64.7,12.409a229.808,229.808,0,0,1-19.04,16.723A296.944,296.944,0,0,1,20.572,47.092C11.769,52.662,4.194,56.548,0,57.207l.231-1.543c.1-.015.195-.032.295-.05s.2-.039.307-.062.211-.047.319-.072.219-.054.331-.085C5.914,54.22,13.205,50.3,21.506,44.978,29.212,40.035,37.5,34.063,45.1,28.074a239.525,239.525,0,0,0,18.183-15.7C67.835,7.955,71.309,4,73.217.864q.069-.111.133-.221l.127-.216Q73.54.32,73.6.212c.039-.072.079-.142.116-.212" fill="#f0f0f0"/>
    </g>
  </g>
  <g id="Groupe_76" data-name="Groupe 76">
    <g id="Groupe_75" data-name="Groupe 75" clip-path="url(#clip-path-3)">
      <path id="Tracé_88" data-name="Tracé 88" d="M246.287,90.15h-1.263V87.511h1.263V84.984h3.177v2.527h2.081V90.15h-2.081v4.162c0,.613.26.873.966.873h1.134v2.694h-1.617c-2.155,0-3.661-.91-3.661-3.6Z" transform="translate(-177.555 -61.583)" fill="#008cd1"/>
      <path id="Tracé_89" data-name="Tracé 89" d="M278.367,104.238H275.19V93.869h3.177V95.6a3.866,3.866,0,0,1,3.252-1.839v3.363h-.873c-1.5,0-2.378.52-2.378,2.3Z" transform="translate(-199.415 -67.941)" fill="#008cd1"/>
      <path id="Tracé_90" data-name="Tracé 90" d="M314.064,104.53h-3.178v-1.412a3.777,3.777,0,0,1-3.14,1.524c-2.4,0-4.013-1.654-4.013-4.422V94.162h3.159v5.63a2.006,2.006,0,1,0,3.995,0v-5.63h3.178Z" transform="translate(-220.098 -68.234)" fill="#008cd1"/>
      <path id="Tracé_91" data-name="Tracé 91" d="M351.831,85.114a3.806,3.806,0,0,1,3.2,1.579V81.881H358.2v13.75h-3.177V94.144a3.587,3.587,0,0,1-3.2,1.635c-2.545,0-4.571-2.081-4.571-5.351s2.025-5.314,4.571-5.314m.929,2.769a2.308,2.308,0,0,0-2.267,2.546,2.342,2.342,0,0,0,2.267,2.583,2.584,2.584,0,0,0,0-5.128" transform="translate(-251.64 -59.334)" fill="#008cd1"/>
      <path id="Tracé_92" data-name="Tracé 92" d="M398.32,104.287a5.334,5.334,0,0,1,0-10.665,4.886,4.886,0,0,1,5.166,5.165,8.088,8.088,0,0,1-.056.929H396.24a1.922,1.922,0,0,0,1.969,1.988,1.69,1.69,0,0,0,1.654-1h3.382a4.846,4.846,0,0,1-4.924,3.586m-2.062-6.336h3.976a1.793,1.793,0,0,0-1.951-1.784,1.965,1.965,0,0,0-2.025,1.784" transform="translate(-284.843 -67.843)" fill="#008cd1"/>
      <path id="Tracé_93" data-name="Tracé 93" d="M437.355,123.261a1.734,1.734,0,1,1,1.877-1.709,1.754,1.754,0,0,1-1.877,1.709" transform="translate(-315.553 -86.816)" fill="#008cd1"/>
    </g>
  </g>
</svg>
